<svg height="56" viewBox="0 0 56 56" width="56" xmlns="http://www.w3.org/2000/svg"><path d="m37.586375 39.217708c-.2030754-.0869708-.4317354-.1600636-.7120963-.2008434-.2555378-.0339526-.5003537-.0696921-.7362347-.1072186-5.1929563-.8255836-5.7147537-2.6715313-6.3920182-4.0868174-.550389-.237668-.8202226-.4288745-1.102565-1.4081382-.1215145-.4181527-.3323778-2.2748222-.2430289-2.998548.4270876-.400283.7505305-1.4170731.8917017-1.8888352.3788392-1.263393.469975-1.5707531.8309445-3.2540858.0518223-.239455.1876326-.3377387.2984252-.3788392.3359517-.1215145.4127918-.3913481.5235844-.5914895.2591117-.4574662.0357395-.6629686.4413834-1.7798295.5182234-1.270541.5986374-2.5786084.2055024-2.9538737-.2662596-.237668-.4288746-.0607572-.5593239-.0125088-.0875619.0339526-.0196568-.1840587.0589702-.4949928.3109341-1.2794758.3127211-2.3641711.396709-3.6758125.0679051-1.0614645-.003574-2.0300063-.1358103-2.6304307-.1250884-.1250884-.4485313-1.5171438-.8184356-2.3320055-.63259-1.39920332-2.5285731-1.61542758-3.1790328-1.89598304-1.5457355-.64688582-3.479245-1.52429172-5.771937-.53430624-1.0203641.43959644-2.378467.4824839-3.8562973 2.14615988-.3502475.391348-.9739027.0553963-1.6708238 1.577901-.7076431 1.4903392-.7451696 2.4731768-.5843417 3.5400023l-.0482483.0017869s.0178697 2.5518038.3305908 3.8312796c.07684.312721.1429582.5289453.0571833.4967797-.1304494-.0482484-.3091471-.2019284-.5754068.0357396-.394922.3752652-.1858456 1.6297233.3323778 2.9002643.4074309 1.1168609.1358103 1.4492387.5700458 2.0371542.1536801.2090764.2984252.319869.4646141.3895611.1107926.0446744.2680467.0589702.3413127.2912773.477123 1.7315811.5646849 2.2641004 1.0614646 3.2933994.2144373.4449573.4556792 1.5582443.8988496 1.9906928.0732661.6093593-.0017869 2.3659581-.0982837 2.8895424-.1536801.8237966-.4431704 1.0614646-1.2187186 1.4081382-.4217267 1.3706117-1.5403745 2.612561-6.2186814 4.0475039-.159041.0482483-.3234429.0982837-.4896318.1465321-.1750767.0583589-.3252603.1307202-.4505508.2141804 3.6057085 3.2150932 8.360396 5.168955 13.5714324 5.168955 5.2182365 0 9.9788622-1.9592648 13.586375-5.1822891zm-13.586375 8.782292c-13.254834 0-24-10.745166-24-24s10.745166-24 24-24 24 10.745166 24 24-10.745166 24-24 24z" transform="translate(4 4)"/></svg>